<?xml version="1.0" encoding="UTF-8" standalone="no"?>
<svg
   xmlns:dc="http://purl.org/dc/elements/1.1/"
   xmlns:cc="http://creativecommons.org/ns#"
   xmlns:rdf="http://www.w3.org/1999/02/22-rdf-syntax-ns#"
   xmlns:svg="http://www.w3.org/2000/svg"
   xmlns="http://www.w3.org/2000/svg"
   xmlns:sodipodi="http://sodipodi.sourceforge.net/DTD/sodipodi-0.dtd"
   xmlns:inkscape="http://www.inkscape.org/namespaces/inkscape"
   width="210mm"
   height="297mm"
   viewBox="0 0 210 297"
   version="1.1"
   id="svg8"
   inkscape:version="1.0.2 (394de47547, 2021-03-26)"
   sodipodi:docname="cuniculus_logo.svg">
  <defs
     id="defs2">
    <rect
       x="47.625"
       y="18.520833"
       width="132.29167"
       height="39.6875"
       id="rect904" />
  </defs>
  <sodipodi:namedview
     id="base"
     pagecolor="#ffffff"
     bordercolor="#666666"
     borderopacity="1.0"
     inkscape:pageopacity="0.0"
     inkscape:pageshadow="2"
     inkscape:zoom="0.98994949"
     inkscape:cx="294.08729"
     inkscape:cy="639.2985"
     inkscape:document-units="mm"
     inkscape:current-layer="layer1"
     inkscape:document-rotation="0"
     showgrid="true"
     inkscape:window-width="1920"
     inkscape:window-height="1025"
     inkscape:window-x="0"
     inkscape:window-y="27"
     inkscape:window-maximized="1">
    <inkscape:grid
       type="xygrid"
       id="grid10" />
  </sodipodi:namedview>
  <metadata
     id="metadata5">
    <rdf:RDF>
      <cc:Work
         rdf:about="">
        <dc:format>image/svg+xml</dc:format>
        <dc:type
           rdf:resource="http://purl.org/dc/dcmitype/StillImage" />
        <dc:title></dc:title>
      </cc:Work>
    </rdf:RDF>
  </metadata>
  <g
     inkscape:label="Layer 1"
     inkscape:groupmode="layer"
     id="layer1">
    <path
       style="fill:none;stroke:#000000;stroke-width:0.264583px;stroke-linecap:butt;stroke-linejoin:miter;stroke-opacity:1"
       d="m 186.53127,243.4167 v 0 c 0,0 1.32292,-9.26042 -17.19791,-5.29167 v 0 l 2.64583,-3.96875 2.64583,-3.96875 c 0,0 -2.64583,-1.32292 -9.26041,7.9375 -10.58334,6.61458 -1.32292,9.26041 -1.32292,9.26041 v 0 c -2.64583,2.64584 -1.32292,2.64584 -1.32292,2.64584 23.8125,-3.96875 23.8125,-6.61458 23.8125,-6.61458 z"
       id="path12"
       sodipodi:nodetypes="ccscccccscc" />
    <g
       id="g26"
       style="stroke:#000000;stroke-width:0.1;stroke-miterlimit:4;stroke-dasharray:none;stroke-opacity:1"
       transform="translate(63.500002,93.927083)">
      <path
         style="fill:none;stroke:#000000;stroke-width:0.1;stroke-linecap:butt;stroke-linejoin:miter;stroke-miterlimit:4;stroke-dasharray:none;stroke-opacity:1"
         d="m 58.208333,162.71875 c -1.683199,0.84083 -9.44726,-1.89165 1.322916,-7.9375 7.408334,-7.9375 6.614584,-5.29167 6.614584,-5.29167"
         id="path14"
         sodipodi:nodetypes="ccc" />
      <path
         style="fill:none;stroke:#000000;stroke-width:0.1;stroke-linecap:butt;stroke-linejoin:miter;stroke-miterlimit:4;stroke-dasharray:none;stroke-opacity:1"
         d="m 66.145833,149.48958 c -2.38125,6.08542 -5.291666,6.61459 -5.291666,6.61459 9.260417,0 13.229166,5.29166 13.229166,5.29166"
         id="path16"
         sodipodi:nodetypes="ccc" />
      <path
         style="fill:none;stroke:#000000;stroke-width:0.1;stroke-linecap:butt;stroke-linejoin:miter;stroke-miterlimit:4;stroke-dasharray:none;stroke-opacity:1"
         d="m 58.208333,162.71875 c -6.962933,4.14734 0.991288,2.39226 1.322917,2.64583"
         id="path18"
         sodipodi:nodetypes="cc" />
      <path
         style="fill:none;stroke:#000000;stroke-width:0.1;stroke-linecap:butt;stroke-linejoin:miter;stroke-miterlimit:4;stroke-dasharray:none;stroke-opacity:1"
         d="m 59.531249,165.36458 c 14.552084,3.96875 14.552084,-3.96875 14.552084,-3.96875"
         id="path20"
         sodipodi:nodetypes="cc" />
    </g>
    <g
       id="g46"
       transform="translate(-13.229166,42.333337)">
      <path
         style="fill:none;stroke:#000000;stroke-width:0.264583px;stroke-linecap:butt;stroke-linejoin:miter;stroke-opacity:1"
         d="m 58.208333,162.71875 c -1.683199,0.84083 -9.44726,-1.89165 1.322916,-7.9375 7.408334,-7.9375 6.614584,-5.29167 6.614584,-5.29167"
         id="path38"
         sodipodi:nodetypes="ccc" />
      <path
         style="fill:none;stroke:#000000;stroke-width:0.264583px;stroke-linecap:butt;stroke-linejoin:miter;stroke-opacity:1"
         d="m 66.145833,149.48958 c -2.38125,6.08542 -5.291666,6.61459 -5.291666,6.61459 9.260417,0 13.229166,5.29166 13.229166,5.29166"
         id="path40"
         sodipodi:nodetypes="ccc" />
      <path
         style="fill:none;stroke:#000000;stroke-width:0.264583px;stroke-linecap:butt;stroke-linejoin:miter;stroke-opacity:1"
         d="m 58.208333,162.71875 c -6.962933,4.14734 0.991288,2.39226 1.322917,2.64583"
         id="path42"
         sodipodi:nodetypes="cc" />
      <path
         style="fill:none;stroke:#000000;stroke-width:0.264583px;stroke-linecap:butt;stroke-linejoin:miter;stroke-opacity:1"
         d="m 59.531249,165.36458 c 14.552084,3.96875 14.552084,-3.96875 14.552084,-3.96875"
         id="path44"
         sodipodi:nodetypes="cc" />
    </g>
    <g
       id="g900"
       transform="matrix(4.298836,0,0,4.298836,-347.54548,-440.63567)"
       inkscape:export-xdpi="96"
       inkscape:export-ydpi="96">
      <path
         style="fill:#e7e7e7;fill-opacity:1;stroke:none;stroke-width:0.0472469"
         d="m 100.54167,137.58337 c -1.78168,-0.0859 -3.46746,-0.35326 -5.639496,-0.89442 -0.963176,-0.23997 -1.087406,-0.24725 -2.307534,-0.13521 -1.045671,0.096 -2.166189,0.076 -2.388259,-0.0427 -0.184891,-0.0988 -0.192132,-0.1899 -0.03364,-0.42315 0.239326,-0.3522 1.37559,-1.20571 2.452203,-1.84198 l 0.220409,-0.13027 -0.07968,-0.13488 -0.07967,-0.13488 -0.218093,0.0682 c -0.291367,0.091 -1.088964,0.0527 -1.578041,-0.076 -0.202269,-0.0532 -0.542449,-0.17921 -0.755955,-0.28004 -0.988928,-0.46704 -1.508667,-1.12757 -1.512504,-1.92221 -0.0068,-1.41722 1.672059,-3.1697 4.833205,-5.04503 l 0.685083,-0.40643 1.103228,-1.14853 c 1.759095,-1.83132 3.303246,-3.28906 4.20969,-3.97409 0.602674,-0.45547 1.089054,-0.66934 1.089054,-0.47888 0,0.11525 -0.40021,1.06404 -0.756724,1.794 -0.790083,1.61768 -1.827803,3.06101 -2.775077,3.85975 -0.46622,0.39311 -1.034598,0.75724 -1.388724,0.88967 -0.258765,0.0968 -0.276648,0.11331 -0.276648,0.25578 v 0.15236 l 0.956752,0.0288 c 3.862731,0.11643 7.518201,1.33355 10.288041,3.42549 0.29883,0.2257 0.8359,0.6975 1.19347,1.04845 0.74959,0.73571 0.72713,0.67602 0.53564,1.42342 -0.4112,1.60492 -1.58038,2.83884 -3.33024,3.51464 -1.1158,0.43092 -2.94178,0.68064 -4.44649,0.6081 z"
         id="path877"
         inkscape:export-xdpi="96"
         inkscape:export-ydpi="96" />
      <path
         style="fill:#b0b0b0;fill-opacity:0.924812;stroke:none;stroke-width:0.0472469"
         d="m 97.895833,138.90628 c -1.781677,-0.0859 -3.467457,-0.35326 -5.639493,-0.89442 -0.963176,-0.23997 -1.087406,-0.24725 -2.307534,-0.13521 -1.045671,0.096 -2.166189,0.076 -2.388259,-0.0427 -0.184891,-0.0988 -0.192132,-0.1899 -0.03364,-0.42315 0.239326,-0.3522 1.37559,-1.20571 2.452203,-1.84198 l 0.220409,-0.13027 -0.07968,-0.13488 -0.07967,-0.13488 -0.218093,0.0682 c -0.291367,0.091 -1.088964,0.0527 -1.578041,-0.076 -0.202269,-0.0532 -0.542449,-0.17921 -0.755955,-0.28004 -0.988928,-0.46704 -1.508667,-1.12757 -1.512504,-1.92221 -0.0068,-1.41722 1.672059,-3.1697 4.833205,-5.04503 l 0.685083,-0.40643 1.103228,-1.14853 c 1.759095,-1.83132 3.303246,-3.28906 4.20969,-3.97409 0.602673,-0.45547 1.089051,-0.66934 1.089051,-0.47888 0,0.11525 -0.400211,1.06404 -0.756721,1.794 -0.790083,1.61768 -1.827803,3.06101 -2.775077,3.85975 -0.46622,0.39311 -1.034598,0.75724 -1.388724,0.88967 -0.258765,0.0968 -0.276648,0.11331 -0.276648,0.25578 v 0.15236 l 0.956752,0.0288 c 3.862734,0.11643 7.518205,1.33355 10.288035,3.42549 0.29884,0.2257 0.8359,0.6975 1.19348,1.04845 0.74959,0.73571 0.72712,0.67602 0.53563,1.42342 -0.41119,1.60492 -1.58038,2.83884 -3.33023,3.51464 -1.11581,0.43092 -2.941787,0.68064 -4.446497,0.6081 z"
         id="path875"
         inkscape:export-xdpi="96"
         inkscape:export-ydpi="96" />
      <path
         style="fill:#6f6f6f;fill-opacity:0.921854;stroke:none;stroke-width:0.0472469"
         d="m 95.262661,140.53233 c -1.781677,-0.0859 -3.467457,-0.35326 -5.639493,-0.89442 -0.963176,-0.23997 -1.087406,-0.24725 -2.307534,-0.13521 -1.045671,0.096 -2.166189,0.076 -2.388259,-0.0427 -0.184891,-0.0988 -0.192132,-0.1899 -0.03364,-0.42315 0.239326,-0.3522 1.37559,-1.20571 2.452203,-1.84198 l 0.220409,-0.13027 -0.07968,-0.13488 -0.07967,-0.13488 -0.218093,0.0682 c -0.291367,0.091 -1.088964,0.0527 -1.578041,-0.076 -0.202269,-0.0532 -0.542449,-0.17921 -0.755955,-0.28004 -0.988928,-0.46704 -1.508667,-1.12757 -1.512504,-1.92221 -0.0068,-1.41722 1.672059,-3.1697 4.833205,-5.04503 l 0.685083,-0.40643 1.103228,-1.14853 c 1.759095,-1.83132 3.303246,-3.28906 4.20969,-3.97409 0.602673,-0.45547 1.089051,-0.66934 1.089051,-0.47888 0,0.11525 -0.400211,1.06404 -0.756721,1.794 -0.790083,1.61768 -1.827803,3.06101 -2.775077,3.85975 -0.46622,0.39311 -1.034598,0.75724 -1.388724,0.88967 -0.258765,0.0968 -0.276648,0.11331 -0.276648,0.25578 v 0.15236 l 0.956752,0.0288 c 3.862734,0.11643 7.518201,1.33355 10.288037,3.42549 0.29884,0.2257 0.8359,0.6975 1.19348,1.04845 0.74958,0.73571 0.72712,0.67602 0.53563,1.42342 -0.41119,1.60492 -1.58038,2.83884 -3.330234,3.51464 -1.115803,0.43092 -2.941785,0.68064 -4.446495,0.6081 z"
         id="path871"
         inkscape:export-xdpi="96"
         inkscape:export-ydpi="96" />
    </g>
    <text
       xml:space="preserve"
       id="text902"
       style="font-style:normal;font-variant:normal;font-weight:normal;font-stretch:normal;font-size:22.5778px;line-height:1.25;font-family:Dyuthi;-inkscape-font-specification:'Dyuthi, Normal';font-variant-ligatures:normal;font-variant-caps:normal;font-variant-numeric:normal;font-variant-east-asian:normal;white-space:pre;shape-inside:url(#rect904);fill:#000000;fill-opacity:1;stroke:none;"
       transform="translate(28.055052,91.920656)"
       inkscape:export-xdpi="96"
       inkscape:export-ydpi="96"><tspan
         x="47.625"
         y="37.15258"><tspan
           style="font-style:normal;font-variant:normal;font-weight:normal;font-stretch:normal;font-size:22.5778px;font-family:Dyuthi;-inkscape-font-specification:'Dyuthi, Normal';font-variant-ligatures:normal;font-variant-caps:normal;font-variant-numeric:normal;font-variant-east-asian:normal">Cuniculus</tspan></tspan></text>
  </g>
</svg>
