<?xml version="1.0" encoding="UTF-8" standalone="no"?>
<svg
   xmlns:dc="http://purl.org/dc/elements/1.1/"
   xmlns:cc="http://creativecommons.org/ns#"
   xmlns:rdf="http://www.w3.org/1999/02/22-rdf-syntax-ns#"
   xmlns:svg="http://www.w3.org/2000/svg"
   xmlns="http://www.w3.org/2000/svg"
   xmlns:xlink="http://www.w3.org/1999/xlink"
   xmlns:sodipodi="http://sodipodi.sourceforge.net/DTD/sodipodi-0.dtd"
   xmlns:inkscape="http://www.inkscape.org/namespaces/inkscape"
   width="210mm"
   height="297mm"
   viewBox="0 0 210 297"
   version="1.1"
   id="svg8"
   inkscape:version="1.0.2 (394de47547, 2021-03-26)"
   sodipodi:docname="cuniculus_logo2.svg">
  <defs
     id="defs2">
    <linearGradient
       inkscape:collect="always"
       id="linearGradient877">
      <stop
         style="stop-color:#5d42d5;stop-opacity:1;"
         offset="0"
         id="stop873" />
      <stop
         style="stop-color:#5d42d5;stop-opacity:0;"
         offset="1"
         id="stop875" />
    </linearGradient>
    <rect
       x="47.625"
       y="18.520833"
       width="132.29167"
       height="39.6875"
       id="rect904" />
    <linearGradient
       inkscape:collect="always"
       xlink:href="#linearGradient877"
       id="linearGradient883"
       x1="10.729759"
       y1="126.82572"
       x2="95.890129"
       y2="126.82572"
       gradientUnits="userSpaceOnUse" />
  </defs>
  <sodipodi:namedview
     id="base"
     pagecolor="#ffffff"
     bordercolor="#666666"
     borderopacity="1.0"
     inkscape:pageopacity="0.0"
     inkscape:pageshadow="2"
     inkscape:zoom="0.98994949"
     inkscape:cx="294.08729"
     inkscape:cy="558.4863"
     inkscape:document-units="mm"
     inkscape:current-layer="layer1"
     inkscape:document-rotation="0"
     showgrid="true"
     inkscape:window-width="1920"
     inkscape:window-height="1025"
     inkscape:window-x="0"
     inkscape:window-y="27"
     inkscape:window-maximized="1">
    <inkscape:grid
       type="xygrid"
       id="grid10" />
  </sodipodi:namedview>
  <metadata
     id="metadata5">
    <rdf:RDF>
      <cc:Work
         rdf:about="">
        <dc:format>image/svg+xml</dc:format>
        <dc:type
           rdf:resource="http://purl.org/dc/dcmitype/StillImage" />
        <dc:title></dc:title>
      </cc:Work>
    </rdf:RDF>
  </metadata>
  <g
     inkscape:label="Layer 1"
     inkscape:groupmode="layer"
     id="layer1">
    <path
       style="fill:none;stroke:#000000;stroke-width:0.264583px;stroke-linecap:butt;stroke-linejoin:miter;stroke-opacity:1"
       d="m 186.53127,243.4167 v 0 c 0,0 1.32292,-9.26042 -17.19791,-5.29167 v 0 l 2.64583,-3.96875 2.64583,-3.96875 c 0,0 -2.64583,-1.32292 -9.26041,7.9375 -10.58334,6.61458 -1.32292,9.26041 -1.32292,9.26041 v 0 c -2.64583,2.64584 -1.32292,2.64584 -1.32292,2.64584 23.8125,-3.96875 23.8125,-6.61458 23.8125,-6.61458 z"
       id="path12"
       sodipodi:nodetypes="ccscccccscc" />
    <g
       id="g26"
       style="stroke:#000000;stroke-width:0.1;stroke-miterlimit:4;stroke-dasharray:none;stroke-opacity:1"
       transform="translate(63.500002,93.927083)">
      <path
         style="fill:none;stroke:#000000;stroke-width:0.1;stroke-linecap:butt;stroke-linejoin:miter;stroke-miterlimit:4;stroke-dasharray:none;stroke-opacity:1"
         d="m 58.208333,162.71875 c -1.683199,0.84083 -9.44726,-1.89165 1.322916,-7.9375 7.408334,-7.9375 6.614584,-5.29167 6.614584,-5.29167"
         id="path14"
         sodipodi:nodetypes="ccc" />
      <path
         style="fill:none;stroke:#000000;stroke-width:0.1;stroke-linecap:butt;stroke-linejoin:miter;stroke-miterlimit:4;stroke-dasharray:none;stroke-opacity:1"
         d="m 66.145833,149.48958 c -2.38125,6.08542 -5.291666,6.61459 -5.291666,6.61459 9.260417,0 13.229166,5.29166 13.229166,5.29166"
         id="path16"
         sodipodi:nodetypes="ccc" />
      <path
         style="fill:none;stroke:#000000;stroke-width:0.1;stroke-linecap:butt;stroke-linejoin:miter;stroke-miterlimit:4;stroke-dasharray:none;stroke-opacity:1"
         d="m 58.208333,162.71875 c -6.962933,4.14734 0.991288,2.39226 1.322917,2.64583"
         id="path18"
         sodipodi:nodetypes="cc" />
      <path
         style="fill:none;stroke:#000000;stroke-width:0.1;stroke-linecap:butt;stroke-linejoin:miter;stroke-miterlimit:4;stroke-dasharray:none;stroke-opacity:1"
         d="m 59.531249,165.36458 c 14.552084,3.96875 14.552084,-3.96875 14.552084,-3.96875"
         id="path20"
         sodipodi:nodetypes="cc" />
    </g>
    <g
       id="g46"
       transform="translate(-13.229166,42.333337)">
      <path
         style="fill:none;stroke:#000000;stroke-width:0.264583px;stroke-linecap:butt;stroke-linejoin:miter;stroke-opacity:1"
         d="m 58.208333,162.71875 c -1.683199,0.84083 -9.44726,-1.89165 1.322916,-7.9375 7.408334,-7.9375 6.614584,-5.29167 6.614584,-5.29167"
         id="path38"
         sodipodi:nodetypes="ccc" />
      <path
         style="fill:none;stroke:#000000;stroke-width:0.264583px;stroke-linecap:butt;stroke-linejoin:miter;stroke-opacity:1"
         d="m 66.145833,149.48958 c -2.38125,6.08542 -5.291666,6.61459 -5.291666,6.61459 9.260417,0 13.229166,5.29166 13.229166,5.29166"
         id="path40"
         sodipodi:nodetypes="ccc" />
      <path
         style="fill:none;stroke:#000000;stroke-width:0.264583px;stroke-linecap:butt;stroke-linejoin:miter;stroke-opacity:1"
         d="m 58.208333,162.71875 c -6.962933,4.14734 0.991288,2.39226 1.322917,2.64583"
         id="path42"
         sodipodi:nodetypes="cc" />
      <path
         style="fill:none;stroke:#000000;stroke-width:0.264583px;stroke-linecap:butt;stroke-linejoin:miter;stroke-opacity:1"
         d="m 59.531249,165.36458 c 14.552084,3.96875 14.552084,-3.96875 14.552084,-3.96875"
         id="path44"
         sodipodi:nodetypes="cc" />
    </g>
    <path
       style="fill:#94a4d4;fill-opacity:1;stroke:none;stroke-width:0.203107"
       d="m 175.80013,106.69874 c -7.65915,-0.36927 -14.90604,-1.5186 -24.24327,-3.84496 -4.14054,-1.03159 -4.67458,-1.06289 -9.91971,-0.58125 -4.49517,0.41269 -9.31209,0.32671 -10.26673,-0.18356 -0.79482,-0.42472 -0.82595,-0.81635 -0.14462,-1.81905 1.02883,-1.51405 5.91344,-5.18315 10.54162,-7.91837 l 0.9475,-0.56001 -0.34253,-0.57983 -0.34249,-0.57982 -0.93754,0.29318 c -1.25254,0.39119 -4.68128,0.22655 -6.78374,-0.32671 -0.86952,-0.2287 -2.3319,-0.7704 -3.24973,-1.20385 -4.25124,-2.00773 -6.48551,-4.84724 -6.502,-8.26327 -0.0292,-6.09239 7.1879,-13.62602 20.77715,-21.68775 l 2.94506,-1.74718 4.7426,-4.93734 c 7.56206,-7.872544 14.20011,-14.139129 18.09676,-17.083961 2.5908,-1.957991 4.68167,-2.877383 4.68167,-2.058626 0,0.49544 -1.72044,4.574133 -3.25303,7.712111 -3.39644,6.954141 -7.85743,13.15878 -11.92961,16.592436 -2.0042,1.68991 -4.44756,3.25525 -5.96989,3.82454 -1.11239,0.41613 -1.18927,0.4871 -1.18927,1.09956 V 63.5 l 4.11292,0.12381 c 16.60525,0.50051 32.31952,5.73271 44.22661,14.72562 1.28462,0.97024 3.59339,2.99843 5.13053,4.50711 3.22236,3.1627 3.12581,2.9061 2.30263,6.11905 -1.76768,6.89929 -6.7938,12.20371 -14.31616,15.10886 -4.79664,1.85245 -12.64623,2.92596 -19.11473,2.61412 z"
       id="path877"
       inkscape:export-xdpi="96"
       inkscape:export-ydpi="96" />
    <path
       style="fill:#8375ff;fill-opacity:0.924812;stroke:none;stroke-width:0.203107"
       d="m 214.3125,214.31267 c -7.65914,-0.36927 -14.90603,-1.51861 -24.24326,-3.84497 -4.14053,-1.03159 -4.67458,-1.06289 -9.91971,-0.58124 -4.49516,0.41268 -9.31209,0.32671 -10.26673,-0.18356 -0.79482,-0.42473 -0.82594,-0.81635 -0.14461,-1.81906 1.02882,-1.51405 5.91343,-5.18315 10.54162,-7.91837 l 0.9475,-0.56001 -0.34253,-0.57982 -0.34249,-0.57983 -0.93755,0.29318 c -1.25254,0.3912 -4.68128,0.22655 -6.78374,-0.32671 -0.86952,-0.2287 -2.3319,-0.77039 -3.24972,-1.20385 -4.25124,-2.00772 -6.48552,-4.84723 -6.50201,-8.26326 -0.0292,-6.0924 7.18791,-13.62602 20.77716,-21.68776 l 2.94505,-1.74717 4.7426,-4.93735 c 7.56206,-7.87254 14.20011,-14.13913 18.09677,-17.08396 2.59079,-1.95799 4.68165,-2.87738 4.68165,-2.05862 0,0.49544 -1.72044,4.57413 -3.25302,7.71211 -3.39644,6.95414 -7.85743,13.15878 -11.9296,16.59243 -2.0042,1.68992 -4.44757,3.25525 -5.9699,3.82455 -1.11239,0.41612 -1.18926,0.4871 -1.18926,1.09955 v 0.65497 l 4.11292,0.12381 c 16.60526,0.50051 32.31953,5.73271 44.22657,14.72562 1.28467,0.97025 3.5934,2.99844 5.13058,4.50711 3.22236,3.1627 3.12577,2.9061 2.30259,6.11905 -1.76764,6.89929 -6.7938,12.20371 -14.31612,15.10886 -4.79668,1.85246 -12.64626,2.92596 -19.11476,2.61413 z"
       id="path875"
       inkscape:export-xdpi="96"
       inkscape:export-ydpi="96" />
    <path
       style="fill:url(#linearGradient883);fill-opacity:1;stroke:none;stroke-width:0.203107"
       d="m 61.973077,163.48977 c -7.659138,-0.36927 -14.906029,-1.51861 -24.243256,-3.84497 -4.140536,-1.03159 -4.67458,-1.06288 -9.91971,-0.58124 -4.495168,0.41269 -9.312091,0.32671 -10.266734,-0.18356 -0.794816,-0.42473 -0.825944,-0.81635 -0.144613,-1.81905 1.028823,-1.51405 5.913436,-5.18315 10.541619,-7.91837 l 0.947502,-0.56001 -0.342531,-0.57983 -0.342489,-0.57983 -0.937546,0.29318 c -1.252539,0.3912 -4.681277,0.22655 -6.783739,-0.32671 -0.869521,-0.2287 -2.331899,-0.77039 -3.249727,-1.20384 -4.251239,-2.00773 -6.485512,-4.84724 -6.502006,-8.26327 -0.02923,-6.0924 7.187907,-13.62602 20.777155,-21.68776 l 2.94506,-1.74717 4.742596,-4.93734 c 7.562061,-7.87255 14.200113,-14.139134 18.096767,-17.083965 2.590792,-1.957991 4.681652,-2.877383 4.681652,-2.058627 0,0.495441 -1.720442,4.574133 -3.25302,7.712112 -3.396437,6.95414 -7.857425,13.15878 -11.929601,16.59243 -2.004203,1.68992 -4.447567,3.25525 -5.969897,3.82455 -1.112388,0.41612 -1.189264,0.4871 -1.189264,1.09955 v 0.65497 l 4.11292,0.12381 c 16.60526,0.50051 32.319513,5.73271 44.226584,14.72562 1.284664,0.97025 3.593397,2.99844 5.130575,4.50712 3.222321,3.16269 3.125769,2.90609 2.302585,6.11904 -1.767638,6.89929 -6.793794,12.20371 -14.31613,15.10887 -4.796654,1.85245 -12.646251,2.92595 -19.114752,2.61412 z"
       id="path871"
       inkscape:export-xdpi="96"
       inkscape:export-ydpi="96" />
    <text
       xml:space="preserve"
       id="text902"
       style="font-style:normal;font-variant:normal;font-weight:normal;font-stretch:normal;font-size:22.5778px;line-height:1.25;font-family:Dyuthi;-inkscape-font-specification:'Dyuthi, Normal';font-variant-ligatures:normal;font-variant-caps:normal;font-variant-numeric:normal;font-variant-east-asian:normal;white-space:pre;shape-inside:url(#rect904);fill:#7a4c6d;fill-opacity:1;stroke:none;"
       transform="translate(-17.224784,118.90568)"
       inkscape:export-xdpi="96"
       inkscape:export-ydpi="96"><tspan
         x="47.625"
         y="37.15258"><tspan
           style="font-style:normal;font-variant:normal;font-weight:normal;font-stretch:normal;font-size:22.5778px;font-family:Dyuthi;-inkscape-font-specification:'Dyuthi, Normal';font-variant-ligatures:normal;font-variant-caps:normal;font-variant-numeric:normal;font-variant-east-asian:normal;fill:#7a4c6d;fill-opacity:1">Cuniculus</tspan></tspan></text>
  </g>
</svg>
